HIERARCHY
ROOT Hips
{
  OFFSET 0 0 0
  CHANNELS 6 Xposition Yposition Zposition Zrotation Yrotation Xrotation
  JOINT LeftThigh
  {
    OFFSET 8.409438 0 -5.917753
    CHANNELS 3 Zrotation Yrotation Xrotation
    JOINT LeftLeg
    {
      OFFSET 0 0 -42.358652
      CHANNELS 3 Zrotation Yrotation Xrotation
      JOINT LeftFoot
      {
        OFFSET 0 0 -39.357303
        CHANNELS 3 Zrotation Yrotation Xrotation
      }
    }
  }
  JOINT RightThigh
  {
    OFFSET -8.409438 0 -5.917753
    CHANNELS 3 Zrotation Yrotation Xrotation
    JOINT RightLeg
    {
      OFFSET 0 0 -42.358652
      CHANNELS 3 Zrotation Yrotation Xrotation
      JOINT RightFoot
      {
        OFFSET 0 0 -39.357303
        CHANNELS 3 Zrotation Yrotation Xrotation
      }
    }
  }
  JOINT SpineLow
  {
    OFFSET 0 0 4.719101
    CHANNELS 3 Zrotation Yrotation Xrotation
    JOINT SpineMid
    {
      OFFSET 0 0 12.899191
      CHANNELS 3 Zrotation Yrotation Xrotation
      JOINT Chest
      {
        OFFSET 0 0 12.899191
        CHANNELS 3 Zrotation Yrotation Xrotation
        JOINT LeftShoulder
        {
          OFFSET 7.550562 1.41573 9.438202
          CHANNELS 3 Zrotation Yrotation Xrotation
          JOINT LeftArm
          {
            OFFSET 9.155056 0 4.247191
            CHANNELS 3 Zrotation Yrotation Xrotation
            JOINT LeftForearm
            {
              OFFSET 0 0 25.771955
              CHANNELS 3 Zrotation Yrotation Xrotation
              JOINT LeftHand
              {
                OFFSET 0 0 25.197169
                CHANNELS 3 Zrotation Yrotation Xrotation
              }
            }
          }
        }
        JOINT RightShoulder
        {
          OFFSET -7.550562 1.41573 9.438202
          CHANNELS 3 Zrotation Yrotation Xrotation
          JOINT RightArm
          {
            OFFSET -9.155056 0 4.247191
            CHANNELS 3 Zrotation Yrotation Xrotation
            JOINT RightForearm
            {
              OFFSET 0 0 -25.771955
              CHANNELS 3 Zrotation Yrotation Xrotation
              JOINT RightHand
              {
                OFFSET 0 0 -25.197169
                CHANNELS 3 Zrotation Yrotation Xrotation
              }
            }
          }
        }
        JOINT Neck
        {
          OFFSET 0 0 15.101124
          CHANNELS 3 Zrotation Yrotation Xrotation
          JOINT Head
          {
            OFFSET 0 0 11.325843
            CHANNELS 3 Zrotation Yrotation Xrotation
            End Site
            {
              OFFSET 0 0 14.157303
            }
          }
        }
      }
    }
  }
}
MOTION
Frames: 7
Frame Time: 0.0
0.0  101.685394  0.0  1.028422  21.857962  -96.854618  2.246234  -20.667117  -0.128773  -11.457426  18.534649  23.068301  1.410989  4.062764  2.233427  -27.1064  16.248651  -4.34257  2.710172  2.428054  22.305542  1.31351  2.54114  -2.526139  0.886145  -0.265624  2.415995  2.393003  -0.813569  6.593433  2.393003  -0.813569  6.593432  4.432222  17.105267  9.799147  142.215681  21.563237  174.981361  -24.561104  17.180292  88.766682  35.648267  -29.551917  19.298251  9.659801  -9.941188  15.907481  71.540433  44.693153  35.785615  -2.94749  1.8278  -19.471261  83.650845  -9.635472  8.749122  -8.376622  -1.560889  1.756478  -6.277654  -1.19502  1.296166  
0.0  101.685394  0.0  0.839824  21.664993  -96.967158  1.686205  -20.782147  0.051205  -10.98791  18.463976  23.172055  1.564825  4.084706  2.293007  -26.699874  16.060109  -4.146061  2.339476  2.425545  22.221362  1.382903  2.539331  -2.500683  0.83904  -0.289064  2.414543  2.262084  -0.872818  6.589319  2.262084  -0.872818  6.589319  4.324132  17.094287  9.684631  142.213192  21.632439  175.044554  -24.553955  17.262042  88.68738  35.731575  -29.433933  19.260296  9.84128  -10.006245  15.967645  70.511299  45.123522  35.015317  -2.085501  2.304756  -19.716661  83.837921  -9.254066  8.488884  -8.122667  -1.649518  1.673144  -6.087117  -1.259651  1.233099  
0.0  101.685394  0.0  0.789792  21.410822  -97.069693  1.59617  -20.883166  0.41381  -10.559271  18.398571  23.280869  1.422877  4.032417  2.208879  -26.099417  15.927142  -3.956959  1.773734  2.496098  22.142272  1.482893  2.576038  -2.462874  0.808007  -0.287274  2.42267  2.177415  -0.86511  6.612023  2.177414  -0.86511  6.612023  4.049278  17.00053  9.513458  142.2355  21.536459  175.109402  -24.756684  17.384481  88.478871  35.910379  -29.234397  19.322852  10.044683  -10.179934  16.090104  69.593031  45.673163  34.473248  -1.377002  2.772415  -20.080135  83.977619  -9.002144  8.41869  -7.891527  -1.738214  1.600498  -5.913688  -1.324599  1.178062  
0.0  101.685394  0.0  0.720759  20.882012  -97.224409  1.645814  -20.962353  0.666735  -10.219694  18.314373  23.335851  1.450046  4.04667  2.238742  -25.253215  15.82016  -3.703267  1.402388  2.527278  22.07466  1.518797  2.575286  -2.433625  0.822667  -0.292292  2.448432  2.216578  -0.881128  6.682071  2.216578  -0.881128  6.682071  3.865971  16.914666  9.400607  142.17691  21.443079  175.194485  -24.81368  17.454826  88.306445  35.822009  -29.296816  19.407172  9.989777  -10.288927  16.049306  69.616584  45.965438  34.360692  -1.099896  3.182252  -20.286692  84.100388  -8.893181  8.457967  -7.693444  -1.806601  1.460496  -5.765327  -1.373603  1.072732  
0.0  101.685394  0.0  0.681068  20.245116  -97.400517  2.284403  -21.152078  1.141857  -10.253165  18.228445  23.126573  1.348244  4.055092  2.216304  -24.228865  15.688358  -3.367836  0.940919  2.57971  21.957984  1.567848  2.61119  -2.399622  0.84783  -0.298184  2.471307  2.284358  -0.900531  6.744042  2.284358  -0.900531  6.744042  3.665324  16.831222  9.355195  142.167031  21.246988  175.257885  -25.222135  17.476557  88.057311  35.635883  -29.353996  19.589613  10.225349  -10.423659  16.145566  69.773468  46.304069  34.450325  -1.002402  3.526324  -20.296124  84.139164  -8.765411  8.504803  -7.490896  -1.814713  1.356672  -5.613706  -1.377916  0.995344  
0.0  101.685394  0.0  0.600864  19.673267  -97.528763  2.754769  -21.292052  1.357378  -10.195308  18.139103  23.075972  1.29027  4.064409  2.224537  -23.55537  15.580821  -3.159745  0.838334  2.551614  21.870546  1.545387  2.623699  -2.379243  0.840047  -0.320959  2.473237  2.260771  -0.961976  6.748694  2.260771  -0.961976  6.748695  3.69594  16.833162  9.41855  142.096552  21.085852  175.318202  -25.358218  17.521274  87.913882  35.549874  -29.403115  19.68808  10.317588  -10.463099  16.153884  70.607539  46.379757  34.901091  -1.088221  3.764787  -20.270438  84.086203  -8.648645  8.595073  -7.212418  -1.745266  1.289465  -5.405241  -1.324392  0.946577  
0.0  101.685394  0.0  0.438778  19.036113  -97.713581  3.551132  -21.570315  1.631409  -10.54146  18.074198  22.801956  1.288288  4.091992  2.257358  -22.812228  15.412581  -2.861092  0.81127  2.499926  21.776363  1.477387  2.630984  -2.374305  0.850796  -0.350937  2.488673  2.286823  -1.04543  6.789742  2.286823  -1.04543  6.789742  3.662957  16.79425  9.399282  142.261061  20.793472  175.344991  -25.304369  17.468059  87.944401  35.557097  -29.353537  19.672701  10.432037  -10.5067  16.132619  71.463585  46.44199  35.35045  -1.339434  3.910973  -20.143868  84.05584  -8.375986  8.586262  -6.983303  -1.686269  1.213872  -5.233774  -1.278775  0.891202  
